# xmcd
#
# Track frame offsets: 
#        150
#        7533
#        37678
#        74034
#        110407
#        137999
#        167027
#        194027
#
# Disc length: 2985 seconds
#
# Revision: 0
# Processed by: cddbd v1.5.2PL0 Copyright (c) Steve Scherf et al.
# Submitted via: ExactAudioCopy v0.95b4
#
DISCID=680ba708
DTITLE=Manikantan - Manasa Murali
DYEAR=2004
DGENRE=Bhajans
TTITLE0=Shloka
TTITLE1=Gopala Gopala
TTITLE2=Manasa Murali
TTITLE3=Krishnam Vande
TTITLE4=Hari Govinda
TTITLE5=Neelanjana Sundara
TTITLE6=Vasudeva Jai Jai
TTITLE7=Nanda Nanda
EXTD=
EXTT0=
EXTT1=
EXTT2=
EXTT3=
EXTT4=
EXTT5=
EXTT6=
EXTT7=
PLAYORDER=
